<mxfile host="app.diagrams.net" modified="2023-05-29T04:18:17.815Z" agent="Mozilla/5.0 (X11; CrOS x86_64 14541.0.0) AppleWebKit/537.36 (KHTML, like Gecko) Chrome/113.0.0.0 Safari/537.36" version="21.3.5" etag="77uuvurPrnBB5DSceKuB" type="github">
  <diagram name="Page-1" id="rTmU0gyJbu6paWlbTUlL">
    <mxGraphModel>
      <root>
        <mxCell id="0" />
        <mxCell id="1" parent="0" />
      </root>
    </mxGraphModel>
  </diagram>
</mxfile>
